<?xml version="1.0" encoding="utf-8"?>
<!-- Generator: Adobe Illustrator 21.1.0, SVG Export Plug-In . SVG Version: 6.00 Build 0)  -->
<svg version="1.1" id="图层_1" xmlns="http://www.w3.org/2000/svg" xmlns:xlink="http://www.w3.org/1999/xlink" x="0px" y="0px"
	 viewBox="0 0 16 16" style="enable-background:new 0 0 16 16;" xml:space="preserve">
<style type="text/css">
	.st0{fill:#94A1B9;}
</style>
<title>Combined Shape</title>
<desc>Created with Sketch.</desc>
<g id="Page-1">
	<g id="_x38_注册-验证正确" transform="translate(-778.000000, -611.000000)">
		<g id="Group-2" transform="translate(730.000000, 264.000000)">
			<g id="Group-5">
				<g id="Group-4-Copy" transform="translate(48.000000, 347.000000)">
					<g id="Combined-Shape">
						<path class="st0" d="M12.5,16h-9C1.6,16,0,14.4,0,12.5v-9C0,1.6,1.6,0,3.5,0h9C14.4,0,16,1.6,16,3.5v9
							C16,14.4,14.4,16,12.5,16z M3.5,1C2.1,1,1,2.1,1,3.5v9C1,13.9,2.1,15,3.5,15h9c1.4,0,2.5-1.1,2.5-2.5v-9C15,2.1,13.9,1,12.5,1
							H3.5z"/>
					</g>
				</g>
			</g>
		</g>
	</g>
</g>
</svg>
