<?xml version="1.0" encoding="utf-8"?>
<!-- Generator: Adobe Illustrator 21.1.0, SVG Export Plug-In . SVG Version: 6.00 Build 0)  -->
<svg version="1.1" id="图层_1" xmlns="http://www.w3.org/2000/svg" xmlns:xlink="http://www.w3.org/1999/xlink" x="0px" y="0px"
	 viewBox="0 0 16 16" style="enable-background:new 0 0 16 16;" xml:space="preserve">
<style type="text/css">
	.st0{fill:#597AB9;}
</style>
<title>Group 4</title>
<desc>Created with Sketch.</desc>
<g id="Group-4">
	<path id="Combined-Shape" class="st0" d="M3,0h10c1.7,0,3,1.3,3,3v10c0,1.7-1.3,3-3,3H3c-1.7,0-3-1.3-3-3V3C0,1.3,1.3,0,3,0z
		 M6.9,10.4c0.1,0,0.2-0.1,0.3-0.2l4.2-4.2l0,0c0.2-0.2,0.2-0.6,0-0.9c-0.2-0.2-0.6-0.2-0.9,0L6.7,8.9L5.1,7.2C4.8,7,4.4,7,4.2,7.2
		l0,0l0,0c-0.2,0.2-0.2,0.6,0,0.9l2.1,2.1C6.4,10.4,6.7,10.4,6.9,10.4z"/>
</g>
</svg>
