<?xml version="1.0" encoding="utf-8"?>
<!-- Generator: Adobe Illustrator 21.1.0, SVG Export Plug-In . SVG Version: 6.00 Build 0)  -->
<svg version="1.1" id="图层_1" xmlns="http://www.w3.org/2000/svg" xmlns:xlink="http://www.w3.org/1999/xlink" x="0px" y="0px"
	 viewBox="0 0 16 16" style="enable-background:new 0 0 16 16;" xml:space="preserve">
<style type="text/css">
	.st0{filter:url(#Adobe_OpacityMaskFilter);}
	.st1{fill:#FFFFFF;}
	.st2{mask:url(#mask-2);fill:#D4DAE5;}
</style>
<title>xx</title>
<desc>Created with Sketch.</desc>
<g id="xx">
	<g id="Combined-Shape-Copy-2">
		<g id="Mask">
		</g>
		<defs>
			<filter id="Adobe_OpacityMaskFilter" filterUnits="userSpaceOnUse" x="3.4" y="3.4" width="9.2" height="9.2">
				<feColorMatrix  type="matrix" values="1 0 0 0 0  0 1 0 0 0  0 0 1 0 0  0 0 0 1 0"/>
			</filter>
		</defs>
		<mask maskUnits="userSpaceOnUse" x="3.4" y="3.4" width="9.2" height="9.2" id="mask-2">
			<g class="st0">
				<rect id="path-1" class="st1" width="16" height="16"/>
			</g>
		</mask>
		<path class="st2" d="M8,6.3l2.5-2.5c0.5-0.5,1.2-0.5,1.7,0s0.5,1.2,0,1.7L9.7,8l2.5,2.5c0.5,0.5,0.5,1.2,0,1.7s-1.2,0.5-1.7,0
			L8,9.7l-2.5,2.5c-0.5,0.5-1.2,0.5-1.7,0s-0.5-1.2,0-1.7L6.3,8L3.8,5.5C3.3,5,3.3,4.2,3.8,3.8s1.2-0.5,1.7,0L8,6.3z"/>
	</g>
</g>
</svg>
