<?xml version="1.0" encoding="utf-8"?>
<!-- Generator: Adobe Illustrator 21.1.0, SVG Export Plug-In . SVG Version: 6.00 Build 0)  -->
<svg version="1.1" id="图层_1" xmlns="http://www.w3.org/2000/svg" xmlns:xlink="http://www.w3.org/1999/xlink" x="0px" y="0px"
	 viewBox="0 0 7 10" style="enable-background:new 0 0 7 10;" xml:space="preserve">
<style type="text/css">
	.st0{fill:#CAD6E5;}
</style>
<title>Combined Shape</title>
<desc>Created with Sketch.</desc>
<g id="Page-1">
	<g id="_x35_-1注册-风险提示" transform="translate(-815.000000, -408.000000)">
		<g id="Group" transform="translate(780.000000, 406.000000)">
			<path id="Combined-Shape" class="st0" d="M39.3,11.8C39.2,11.9,39.2,11.9,39.3,11.8c-0.3,0.2-0.6,0.2-0.8,0L36,8.7
				c-0.1-0.1-0.1-0.2-0.1-0.3c0-0.3,0.2-0.5,0.5-0.5h5c0.1,0,0.2,0,0.3,0.1c0.2,0.2,0.3,0.4,0.1,0.6L39.3,11.8z M38.6,2.2
				C38.6,2.1,38.6,2.1,38.6,2.2c0.3-0.2,0.6-0.2,0.8,0l2.5,3.1c0.1,0.1,0.1,0.2,0.1,0.3c0,0.3-0.2,0.5-0.5,0.5h-5
				c-0.1,0-0.2,0-0.3-0.1c-0.2-0.2-0.3-0.4-0.1-0.6L38.6,2.2z"/>
		</g>
	</g>
</g>
</svg>
