<?xml version="1.0" encoding="UTF-8"?>
<svg width="16px" height="16px" viewBox="0 0 16 16" version="1.1" xmlns="http://www.w3.org/2000/svg" xmlns:xlink="http://www.w3.org/1999/xlink">
    <!-- Generator: Sketch 50.2 (55047) - http://www.bohemiancoding.com/sketch -->
    <title>delete</title>
    <desc>Created with Sketch.</desc>
    <defs></defs>
    <g id="delete" stroke="none" stroke-width="1" fill="none" fill-rule="evenodd">
        <path d="M8,16 C3.581722,16 0,12.418278 0,8 C0,3.581722 3.581722,0 8,0 C12.418278,0 16,3.581722 16,8 C16,12.418278 12.418278,16 8,16 Z M8.59172217,7.80769231 L10.3594891,6.03992535 C10.5547513,5.84466321 10.5547513,5.52808072 10.3594891,5.33281857 C10.164227,5.13755643 9.84764448,5.13755643 9.65238234,5.33281857 L7.88461538,7.10058553 L6.11684843,5.33281857 C5.92158629,5.13755643 5.6050038,5.13755643 5.40974165,5.33281857 C5.2144795,5.52808072 5.2144795,5.84466321 5.40974165,6.03992535 L7.1775086,7.80769231 L5.40974165,9.57545926 C5.2144795,9.77072141 5.2144795,10.0873039 5.40974165,10.282566 C5.6050038,10.4778282 5.92158629,10.4778282 6.11684843,10.282566 L7.88461538,8.51479909 L9.65238234,10.282566 C9.84764448,10.4778282 10.164227,10.4778282 10.3594891,10.282566 C10.5547513,10.0873039 10.5547513,9.77072141 10.3594891,9.57545926 L8.59172217,7.80769231 Z" id="Combined-Shape" fill="#E2E6ED"></path>
    </g>
</svg>