<svg id="图层_1" data-name="图层 1" xmlns="http://www.w3.org/2000/svg" viewBox="0 0 18 18"><defs><style>.cls-1{fill:#bfcae4;}.cls-2{fill:#fff;}</style></defs><title>画板 4</title><path class="cls-1" d="M9,5c3.42,0,6.44,2.74,7.66,4-1.21,1.27-4.23,4-7.66,4S2.56,10.26,1.34,9C2.56,7.73,5.57,5,9,5M9,4C4,4,0,9,0,9s4,5,9,5,9-5,9-5S14,4,9,4Z"/><path class="cls-1" d="M4.43,14.5a.93.93,0,0,1-.66-1.59l9.14-9.14a.93.93,0,0,1,1.32,1.32L5.09,14.23A.92.92,0,0,1,4.43,14.5Z"/><path class="cls-2" d="M13.57,4a.43.43,0,0,1,.3.74L4.74,13.87a.43.43,0,1,1-.61-.61l9.14-9.14a.43.43,0,0,1,.3-.13m0-1a1.42,1.42,0,0,0-1,.42L3.42,12.56a1.43,1.43,0,1,0,2,2l9.14-9.14a1.43,1.43,0,0,0-1-2.44Z"/></svg>