<?xml version="1.0" encoding="utf-8"?>
<!-- Generator: Adobe Illustrator 21.1.0, SVG Export Plug-In . SVG Version: 6.00 Build 0)  -->
<svg version="1.1" id="图层_1" xmlns="http://www.w3.org/2000/svg" xmlns:xlink="http://www.w3.org/1999/xlink" x="0px" y="0px"
	 viewBox="0 0 16 16" style="enable-background:new 0 0 16 16;" xml:space="preserve">
<style type="text/css">
	.st0{fill:#E2E6ED;}
</style>
<title>delete</title>
<desc>Created with Sketch.</desc>
<g id="delete">
	<path id="Combined-Shape" class="st0" d="M8,16c-4.4,0-8-3.6-8-8s3.6-8,8-8s8,3.6,8,8S12.4,16,8,16z M8.6,7.8L10.4,6
		c0.2-0.2,0.2-0.5,0-0.7c-0.2-0.2-0.5-0.2-0.7,0L7.9,7.1L6.1,5.3c-0.2-0.2-0.5-0.2-0.7,0C5.2,5.5,5.2,5.8,5.4,6l1.8,1.8L5.4,9.6
		c-0.2,0.2-0.2,0.5,0,0.7c0.2,0.2,0.5,0.2,0.7,0l1.8-1.8l1.8,1.8c0.2,0.2,0.5,0.2,0.7,0c0.2-0.2,0.2-0.5,0-0.7L8.6,7.8z"/>
</g>
</svg>
