<?xml version="1.0" encoding="utf-8"?>
<!-- Generator: Adobe Illustrator 21.1.0, SVG Export Plug-In . SVG Version: 6.00 Build 0)  -->
<svg version="1.1" id="图层_1" xmlns="http://www.w3.org/2000/svg" xmlns:xlink="http://www.w3.org/1999/xlink" x="0px" y="0px"
	 viewBox="0 0 20 20" style="enable-background:new 0 0 20 20;" xml:space="preserve">
<style type="text/css">
	.st0{fill:#94A1B9;}
</style>
<title>搜索</title>
<desc>Created with Sketch.</desc>
<g id="搜索">
	<path id="Combined-Shape" class="st0" d="M12.6,11.8c1.6-2,1.4-4.8-0.4-6.7c-2-2-5.1-2-7.1,0s-2,5.1,0,7.1c1.8,1.8,4.7,2,6.7,0.4
		l0.4-0.4L12.6,11.8z M4.1,13.2c-2.5-2.5-2.5-6.6,0-9.1s6.6-2.5,9.1,0c2.3,2.3,2.5,6,0.5,8.6l3.6,3.6c0.3,0.3,0.3,0.7,0,1
		s-0.7,0.3-1,0l-3.6-3.6C10.2,15.7,6.5,15.6,4.1,13.2z"/>
</g>
</svg>
